#!OML:ASF X:\für Bonn\!DataBase\2005_08_12_Daniel\c3d\Daniel.ASF
:FULLY-SPECIFIED
:DEGREES
1
root 1.90073 15.4386 -0.00987007 -28.3753 82.0468 -387.414
lowerback 38.1712 -1.7799 4.44361
upperback 7.83903 0.341769 -0.875256
thorax -10.0046 0.484993 -3.47333
lowerneck 1.9206 2.08313 -4.73531
upperneck 1.24671 2.72815 -2.20077
head 0.0343436 1.35918 0.0855735
rclavicle -1.39149e-015 -1.96797e-014
rhumerus -38.8442 -28.7196 -66.0014
rradius 10.2322
rwrist 40.3461
rhand -15.1039 9.30584
rfingers 7.12502
rthumb 11.0645 -20.3825
lclavicle -1.39149e-015 -1.96797e-014
lhumerus -52.6298 46.4312 43.1364
lradius 11.3038
lwrist -83.0464
lhand -3.65512 -3.7859
lfingers 7.12502
lthumb 22.0851 24.9729
rfemur -42.4737 -0.637209 23.277
rtibia 70.489
rfoot -23.6754 5.12453
rtoes -10.8594
lfemur -47.2161 3.70352 -15.5852
ltibia 76.3427
lfoot -26.3451 -3.70763
ltoes -10.0683
2
root 2.03383 15.541 -0.00627886 -28.8071 82.2745 -388.414
lowerback 37.7247 -1.84294 4.40917
upperback 7.89795 0.22143 -0.863364
thorax -9.79429 0.433095 -3.39148
lowerneck 1.928 2.06935 -4.84266
upperneck 1.49857 2.71942 -2.27484
head 0.109096 1.34937 0.0820558
rclavicle 1.37161e-014 1.31198e-014
rhumerus -40.9742 -24.7979 -66.5274
rradius 10.8958
rwrist 40.6068
rhand -15.5037 10.9605
rfingers 7.12502
rthumb 10.6789 -18.7481
lclavicle 1.37161e-014 1.31198e-014
lhumerus -52.7654 42.2892 44.6189
lradius 11.6013
lwrist -81.2192
lhand -3.01256 -4.23764
lfingers 7.12502
lthumb 22.7019 24.4469
rfemur -42.0674 -0.433584 23.2091
rtibia 69.7713
rfoot -23.5754 4.64647
rtoes -11.347
lfemur -46.7299 3.70292 -15.6655
ltibia 75.4021
lfoot -26.312 -3.90536
ltoes -10.1939
3
root 2.16463 15.65 -0.000999782 -29.611 82.5254 -389.792
lowerback 37.2259 -1.92674 4.4073
upperback 7.95981 0.0859108 -0.838219
thorax -9.56148 0.373483 -3.30743
lowerneck 1.89329 2.05757 -4.97329
upperneck 1.80623 2.71849 -2.33574
head 0.206961 1.34142 0.0872686
rclavicle 5.96354e-015 -1.37161e-014
rhumerus -43.5786 -22.893 -65.7279
rradius 11.2229
rwrist 43.0175
rhand -16.2712 12.6503
rfingers 7.12502
rthumb 9.93852 -17.0951
lclavicle 5.96354e-015 -1.37161e-014
lhumerus -53.4398 38.7897 45.4149
lradius 11.7334
lwrist -79.4281
lhand -3.17275 -4.78218
lfingers 7.12502
lthumb 22.5482 23.9211
rfemur -41.6508 -0.259603 23.1883
rtibia 69.0075
rfoot -23.4113 4.1077
rtoes -11.9517
lfemur -46.2161 3.69498 -15.7106
ltibia 74.3745
lfoot -26.2088 -4.1074
ltoes -10.5042
4
root 2.29566 15.7637 0.00485723 -30.3406 82.8127 -391.051
lowerback 36.7439 -2.01116 4.36492
upperback 7.99806 -0.0657361 -0.810163
thorax -9.36038 0.304741 -3.1944
lowerneck 1.82971 2.06102 -5.12691
upperneck 2.19089 2.74214 -2.3347
head 0.331606 1.34301 0.116111
rclavicle 1.11319e-014 -7.95139e-016
rhumerus -46.2845 -21.8175 -64.3386
rradius 11.2824
rwrist 46.1106
rhand -17.2453 14.1417
rfingers 7.12502
rthumb 8.99863 -15.6464
lclavicle 1.11319e-014 -7.95139e-016
lhumerus -54.7001 35.9059 45.5487
lradius 11.8592
lwrist -77.7298
lhand -4.06191 -5.50085
lfingers 7.12502
lthumb 21.6945 23.3036
rfemur -41.1621 -0.0988963 23.1157
rtibia 68.1948
rfoot -23.1084 3.55216
rtoes -12.3987
lfemur -45.6226 3.64573 -15.7873
ltibia 73.2614
lfoot -26.0132 -4.35305
ltoes -10.6146
5
root 2.42496 15.8789 0.0116191 -31.3723 83.0934 -392.6
lowerback 36.1906 -2.10395 4.37769
upperback 8.06716 -0.212736 -0.803654
thorax -9.09706 0.239755 -3.13655
lowerneck 1.70033 2.05345 -5.2058
upperneck 2.59988 2.75884 -2.36571
head 0.47639 1.34003 0.124505
rclavicle 5.36719e-015 1.41137e-014
rhumerus -49.0974 -21.8489 -62.0522
rradius 11.0582
rwrist 50.0728
rhand -18.262 15.4684
rfingers 7.12502
rthumb 8.01746 -14.3596
lclavicle 5.36719e-015 1.41137e-014
lhumerus -56.3667 33.7366 44.9585
lradius 12.0584
lwrist -76.4236
lhand -5.3448 -6.43321
lfingers 7.12502
lthumb 20.4621 22.5086
rfemur -40.6778 0.0165714 23.0906
rtibia 67.3509
rfoot -22.6561 2.99949
rtoes -12.879
lfemur -45.0261 3.625 -15.8314
ltibia 72.1115
lfoot -25.7298 -4.61217
ltoes -10.6127
6
root 2.55428 15.9993 0.02046 -32.5127 83.4028 -394.219
lowerback 35.6943 -2.19155 4.3361
upperback 8.11922 -0.365321 -0.760611
thorax -8.87088 0.171072 -3.01073
lowerneck 1.53123 2.06117 -5.36232
upperneck 3.05979 2.79986 -2.3441
head 0.64229 1.34677 0.162793
rclavicle -5.96354e-015 7.15625e-015
rhumerus -51.977 -22.4291 -58.9958
rradius 10.639
rwrist 54.4051
rhand -19.1007 16.5397
rfingers 7.12502
rthumb 7.20799 -13.3175
lclavicle -5.96354e-015 7.15625e-015
lhumerus -59.123 33.243 42.198
lradius 12.0673
lwrist -77.2366
lhand -6.94177 -7.6705
lfingers 7.12502
lthumb 18.9268 21.4287
rfemur -40.1415 0.0825434 23.0541
rtibia 66.4531
rfoot -22.0215 2.44598
rtoes -13.3951
lfemur -44.3699 3.60802 -15.8912
ltibia 70.8981
lfoot -25.3298 -4.89861
ltoes -10.5909
7
root 2.68195 16.1223 0.0283245 -34.1843 83.7134 -396.332
lowerback 35.1559 -2.30753 4.34374
upperback 8.18435 -0.53785 -0.71833
thorax -8.614 0.0932422 -2.90593
lowerneck 1.57261 2.07603 -5.57943
upperneck 3.38466 2.8292 -2.26761
head 0.731633 1.3524 0.223984
rclavicle 3.18055e-015 -5.1684e-015
rhumerus -55.117 -23.7292 -54.7809
rradius 10.05
rwrist 59.652
rhand -19.7238 17.4567
rfingers 7.12502
rthumb 6.60648 -12.4202
lclavicle 3.18055e-015 -5.1684e-015
lhumerus -62.4463 33.6055 37.9311
lradius 11.8308
lwrist -79.2902
lhand -8.55764 -8.99992
lfingers 7.12502
lthumb 17.3722 20.2437
rfemur -39.5426 0.127383 23.0518
rtibia 65.4994
rfoot -21.2024 1.84471
rtoes -13.8099
lfemur -43.6734 3.58009 -15.9165
ltibia 69.6537
lfoot -24.78 -5.22534
ltoes -10.5111
8
root 2.80962 16.252 0.0380785 -35.9368 84.0113 -398.502
lowerback 34.4165 -2.39239 4.33227
upperback 8.38276 -0.689866 -0.673833
thorax -8.25619 0.0284258 -2.80885
lowerneck 1.79378 2.09168 -5.83024
upperneck 3.56548 2.83818 -2.13494
head 0.746212 1.35288 0.304328
rclavicle -1.90833e-014 -1.19271e-015
rhumerus -56.834 -22.9657 -53.8511
rradius 9.3688
rwrist 60.9469
rhand -20.1239 17.3326
rfingers 7.12502
rthumb 6.22024 -12.5561
lclavicle -1.90833e-014 -1.19271e-015
lhumerus -65.8229 33.9935 33.2978
lradius 11.593
lwrist -81.7405
lhand -9.95193 -10.1748
lfingers 7.12502
lthumb 16.0299 19.1821
rfemur -38.8989 0.210914 23.0435
rtibia 64.4767
rfoot -20.2097 1.25324
rtoes -13.8858
lfemur -42.9236 3.57398 -15.9323
ltibia 68.3659
lfoot -24.0751 -5.56725
ltoes -10.3643
